<?xml version="1.0" encoding="UTF-8" standalone="no"?>
<svg
   width="8.119915"
   height="16.264952"
   fill="currentColor"
   class="bi bi-telephone"
   viewBox="0 0 8.1199152 16.264951"
   version="1.1"
   id="svg1"
   sodipodi:docname="telephone.svg"
   inkscape:version="1.3.2 (091e20e, 2023-11-25, custom)"
   inkscape:export-filename="telephone.svg"
   inkscape:export-xdpi="96"
   inkscape:export-ydpi="96"
   xmlns:inkscape="http://www.inkscape.org/namespaces/inkscape"
   xmlns:sodipodi="http://sodipodi.sourceforge.net/DTD/sodipodi-0.dtd"
   xmlns="http://www.w3.org/2000/svg"
   xmlns:svg="http://www.w3.org/2000/svg">
  <defs
     id="defs1" />
  <sodipodi:namedview
     id="namedview1"
     pagecolor="#ffffff"
     bordercolor="#000000"
     borderopacity="0.25"
     inkscape:showpageshadow="2"
     inkscape:pageopacity="0.0"
     inkscape:pagecheckerboard="0"
     inkscape:deskcolor="#d1d1d1"
     inkscape:zoom="31.8125"
     inkscape:cx="6.4125737"
     inkscape:cy="8.2514735"
     inkscape:window-width="1366"
     inkscape:window-height="705"
     inkscape:window-x="-8"
     inkscape:window-y="-8"
     inkscape:window-maximized="1"
     inkscape:current-layer="svg1" />
  <path
     d="M 4.3205303,1.4233159 A 0.57403199,0.57403199 0 0 0 3.6241253,0.91700024 L 2.4151116,1.1863762 C 1.8501175,1.3125873 1.4116383,1.7209988 1.2892084,2.2462057 a 14.901125,14.901125 0 0 0 -0.026008,6.6145872 14.901125,14.901125 0 0 0 2.8259117,5.9806111 c 0.3334088,0.423872 0.9036184,0.608056 1.4688744,0.483011 l 1.20856,-0.268662 a 0.57403199,0.57403199 0 0 0 0.4163106,-0.75367 L 6.350278,11.972065 A 0.5757253,0.5757253 0 0 0 5.9914198,11.621309 L 4.178441,11.016697 A 1.481646,1.481646 0 0 1 3.2034208,9.9357236 L 2.5657389,7.0643879 A 1.481646,1.481646 0 0 1 2.9902499,5.6716857 L 4.3770446,4.3563814 A 0.5757253,0.5757253 0 0 0 4.5535049,3.8866256 Z M 3.4275006,0.03525597 A 1.4774128,1.4774128 0 0 1 5.2192304,1.3388342 l 0.2334292,2.462595 C 5.4954203,4.2531173 5.3278547,4.6994311 4.9986549,5.0117948 L 3.6125744,6.3275539 A 0.5757253,0.5757253 0 0 0 3.4474834,6.8677627 L 4.0858792,9.7395525 A 0.5757253,0.5757253 0 0 0 4.465003,10.159398 l 1.812263,0.604157 a 1.481646,1.481646 0 0 1 0.9240332,0.904029 l 0.8318646,2.329563 c 0.2990257,0.837516 -0.2034435,1.747105 -1.0702523,1.939182 l -1.20856,0.268662 C 4.8894259,16.397264 3.951673,16.126747 3.3801871,15.398861 A 15.747781,15.747781 0 0 1 0.38165037,9.0555351 15.747781,15.747781 0 0 1 0.40990227,2.0399704 C 0.61944777,1.1396898 1.3547298,0.49664467 2.2196561,0.30437222 Z"
     id="path1"
     style="fill:#ffffff;fill-opacity:1;stroke:none;stroke-width:0.846656" />
</svg>
