<?xml version="1.0" encoding="UTF-8" standalone="no"?>
<!-- Created with Inkscape (http://www.inkscape.org/) -->

<svg
   width="47.784565"
   height="47.784569"
   viewBox="0 0 12.643 12.643"
   version="1.1"
   id="svg1"
   inkscape:version="1.3.2 (091e20e, 2023-11-25, custom)"
   sodipodi:docname="imagem_circulo_claro.svg"
   inkscape:export-filename="imagem_circulo.png"
   inkscape:export-xdpi="170.76643"
   inkscape:export-ydpi="170.76643"
   xmlns:inkscape="http://www.inkscape.org/namespaces/inkscape"
   xmlns:sodipodi="http://sodipodi.sourceforge.net/DTD/sodipodi-0.dtd"
   xmlns="http://www.w3.org/2000/svg"
   xmlns:svg="http://www.w3.org/2000/svg">
  <sodipodi:namedview
     id="namedview1"
     pagecolor="#ffffff"
     bordercolor="#000000"
     borderopacity="0.25"
     inkscape:showpageshadow="2"
     inkscape:pageopacity="0.0"
     inkscape:pagecheckerboard="0"
     inkscape:deskcolor="#d1d1d1"
     inkscape:document-units="mm"
     showgrid="false"
     showguides="true"
     inkscape:zoom="7.2551065"
     inkscape:cx="23.569606"
     inkscape:cy="21.088595"
     inkscape:window-width="1350"
     inkscape:window-height="728"
     inkscape:window-x="0"
     inkscape:window-y="0"
     inkscape:window-maximized="0"
     inkscape:current-layer="g5"
     inkscape:lockguides="false">
    <inkscape:grid
       id="grid1"
       units="mm"
       originx="-0.20452931"
       originy="-0.13528957"
       spacingx="1.0000001"
       spacingy="0.99999997"
       empcolor="#0099e5"
       empopacity="0.30196078"
       color="#0099e5"
       opacity="0.14901961"
       empspacing="5"
       dotted="false"
       gridanglex="30"
       gridanglez="30"
       visible="false" />
  </sodipodi:namedview>
  <defs
     id="defs1" />
  <g
     inkscape:label="Camada 1"
     inkscape:groupmode="layer"
     id="layer1"
     transform="translate(-0.20452932,-0.13528984)">
    <g
       id="g3">
      <g
         id="g4">
        <g
           id="g5">
          <g
             id="g168"
             transform="matrix(1.4542031,1.9663382,-2.1102152,1.6270383,20.040729,-37.648175)"
             style="fill:#ededed;fill-opacity:1">
            <g
               id="g77"
               transform="matrix(0.52791847,-0.63800968,0.73973929,0.50977321,-4.7352268,22.733874)"
               style="fill:#ededed;fill-opacity:1">
              <g
                 id="g72"
                 style="fill:#ededed;fill-opacity:1">
                <path
                   d="M 19.473,4.756 C 19.22,4.725 18.968,4.784 18.73,4.865 c -0.198,0.067 -0.39,0.154 -0.572,0.258 -0.363,0.208 -0.686,0.486 -0.939,0.82 -0.252,0.333 -0.429,0.725 -0.497,1.138 -0.068,0.41 -0.037,0.838 0.096,1.232 0.135,0.402 0.377,0.768 0.71,1.031 0.194,0.153 0.414,0.267 0.652,0.334 0.237,0.067 0.487,0.092 0.733,0.091 C 19.757,9.767 20.588,9.433 21.222,8.88 21.539,8.603 21.808,8.269 22.003,7.896 22.121,7.669 22.216,7.427 22.258,7.173 22.294,6.954 22.29,6.731 22.248,6.512 22.166,6.077 21.944,5.669 21.631,5.357 21.305,5.032 20.884,4.812 20.442,4.694 19.979,4.571 19.464,4.539 18.998,4.663 c -0.474,0.126 -0.862,0.449 -1.18,0.811 -0.304,0.347 -0.544,0.75 -0.704,1.183 -0.166,0.45 -0.272,0.958 -0.145,1.431 0.105,0.389 0.351,0.732 0.664,0.981 0.334,0.266 0.736,0.423 1.161,0.464 0.475,0.046 0.957,-0.05 1.394,-0.234 C 20.636,9.11 21.069,8.832 21.353,8.43 21.499,8.224 21.614,7.994 21.715,7.763 21.817,7.528 21.9,7.284 21.941,7.03 22.016,6.559 21.939,6.064 21.637,5.683 21.359,5.332 20.945,5.113 20.537,4.95 20.297,4.854 20.049,4.779 19.791,4.753 19.555,4.73 19.315,4.747 19.084,4.796 c -0.927,0.197 -1.645,0.9 -2.052,1.731 -0.109,0.223 -0.204,0.458 -0.235,0.706 -0.032,0.256 0.019,0.514 0.096,0.758 0.128,0.406 0.347,0.792 0.657,1.086 0.335,0.318 0.764,0.493 1.223,0.533 0.486,0.042 0.983,-0.054 1.438,-0.218 C 20.656,9.231 21.077,8.987 21.398,8.635 21.695,8.31 21.908,7.907 22,7.476 22.09,7.055 22.055,6.615 21.895,6.215 21.74,5.827 21.482,5.481 21.159,5.217 20.425,4.617 19.405,4.498 18.518,4.792 c -0.437,0.145 -0.86,0.389 -1.158,0.746 -0.272,0.327 -0.418,0.74 -0.445,1.163 -0.027,0.426 0.065,0.862 0.263,1.24 0.199,0.381 0.497,0.703 0.844,0.954 0.34,0.246 0.72,0.414 1.123,0.526 C 19.176,9.43 19.19,9.381 19.158,9.373 18.757,9.262 18.368,9.07 18.034,8.822 17.7,8.574 17.414,8.255 17.225,7.883 16.851,7.149 16.885,6.176 17.441,5.541 c 0.3,-0.343 0.717,-0.573 1.148,-0.706 0.448,-0.139 0.929,-0.174 1.391,-0.09 0.432,0.078 0.839,0.262 1.174,0.547 0.309,0.264 0.555,0.604 0.696,0.987 0.145,0.395 0.167,0.822 0.07,1.23 C 21.821,7.926 21.607,8.315 21.311,8.624 20.99,8.961 20.573,9.193 20.136,9.343 19.692,9.496 19.213,9.583 18.742,9.537 18.299,9.494 17.888,9.314 17.569,9.001 17.272,8.709 17.065,8.332 16.945,7.935 16.871,7.69 16.827,7.435 16.87,7.18 16.911,6.941 17.009,6.714 17.119,6.499 17.32,6.106 17.588,5.745 17.922,5.455 c 0.347,-0.301 0.768,-0.516 1.22,-0.603 0.227,-0.044 0.461,-0.055 0.69,-0.027 0.253,0.03 0.496,0.111 0.73,0.208 0.395,0.163 0.793,0.385 1.05,0.736 0.283,0.388 0.334,0.889 0.239,1.35 C 21.8,7.364 21.713,7.601 21.608,7.827 21.507,8.046 21.393,8.263 21.247,8.455 21.098,8.651 20.909,8.81 20.704,8.945 20.508,9.073 20.299,9.183 20.08,9.268 19.65,9.436 19.182,9.515 18.722,9.457 18.313,9.405 17.926,9.236 17.613,8.967 17.318,8.712 17.093,8.372 17.011,7.988 16.912,7.524 17.034,7.029 17.204,6.596 17.369,6.177 17.611,5.788 17.915,5.454 18.072,5.282 18.245,5.122 18.437,4.99 18.64,4.851 18.863,4.754 19.104,4.703 c 0.458,-0.098 0.954,-0.056 1.4,0.077 0.427,0.127 0.83,0.354 1.136,0.681 0.295,0.315 0.501,0.722 0.557,1.152 0.061,0.47 -0.08,0.926 -0.309,1.334 -0.4,0.711 -1.07,1.258 -1.833,1.538 -0.382,0.14 -0.787,0.214 -1.194,0.209 C 18.617,9.691 18.372,9.662 18.139,9.588 17.907,9.515 17.694,9.393 17.51,9.235 16.89,8.7 16.647,7.818 16.8,7.023 16.955,6.22 17.517,5.547 18.216,5.146 c 0.171,-0.098 0.351,-0.18 0.536,-0.245 0.231,-0.081 0.474,-0.143 0.72,-0.118 0.019,0.003 0.019,-0.025 10e-4,-0.027 z"
                   id="path71"
                   style="fill:#ededed;fill-opacity:1" />
              </g>
              <g
                 id="g73"
                 style="fill:#ededed;fill-opacity:1">
                <path
                   d="m 18.661,9.207 c 0.475,0.374 1.138,0.272 1.642,0.018 C 20.577,9.087 20.831,8.905 21.058,8.7 21.281,8.499 21.483,8.271 21.644,8.017 21.801,7.77 21.922,7.494 21.966,7.204 22.013,6.898 21.964,6.6 21.851,6.313 21.741,6.034 21.595,5.767 21.405,5.535 21.229,5.321 21.012,5.144 20.768,5.012 20.294,4.757 19.733,4.674 19.204,4.772 c -0.53,0.099 -1.02,0.377 -1.4,0.757 -0.403,0.404 -0.696,0.934 -0.777,1.503 -0.04,0.282 -0.027,0.573 0.055,0.847 0.073,0.243 0.196,0.469 0.353,0.668 0.32,0.405 0.782,0.693 1.281,0.819 0.597,0.151 1.238,0.089 1.815,-0.114 0.068,-0.024 0.136,-0.05 0.203,-0.078 0.069,-0.029 0.133,-0.067 0.2,-0.099 0.021,-0.01 0.003,-0.041 -0.018,-0.031 -0.07,0.033 -0.146,0.055 -0.218,0.083 -0.07,0.027 -0.141,0.052 -0.212,0.075 -0.14,0.045 -0.283,0.083 -0.428,0.113 -0.289,0.059 -0.586,0.081 -0.88,0.058 C 18.652,9.331 18.147,9.132 17.75,8.781 17.369,8.445 17.109,7.982 17.073,7.471 c -0.04,-0.569 0.171,-1.137 0.508,-1.59 0.311,-0.42 0.743,-0.756 1.234,-0.939 0.493,-0.184 1.035,-0.199 1.537,-0.039 0.25,0.08 0.488,0.202 0.694,0.365 0.219,0.174 0.397,0.393 0.538,0.635 0.15,0.258 0.274,0.548 0.319,0.845 C 21.946,7.033 21.896,7.323 21.79,7.589 21.576,8.13 21.15,8.585 20.682,8.919 20.216,9.252 19.629,9.506 19.049,9.355 18.916,9.32 18.787,9.267 18.67,9.194 18.663,9.189 18.653,9.201 18.661,9.207 Z"
                   id="path72"
                   style="fill:#ededed;fill-opacity:1" />
              </g>
              <g
                 id="g74"
                 style="fill:#ededed;fill-opacity:1">
                <path
                   d="M 18.979,9.677 C 19.736,9.715 20.514,9.569 21.174,9.186 21.789,8.829 22.273,8.252 22.464,7.562 22.557,7.226 22.576,6.869 22.502,6.527 22.42,6.148 22.229,5.795 21.977,5.502 21.528,4.98 20.868,4.651 20.185,4.581 19.805,4.542 19.43,4.594 19.067,4.706 18.682,4.825 18.292,4.98 17.959,5.21 c -0.287,0.198 -0.52,0.461 -0.682,0.77 -0.159,0.301 -0.25,0.634 -0.285,0.971 -0.036,0.346 -0.01,0.699 0.072,1.037 0.091,0.372 0.25,0.734 0.507,1.022 0.244,0.275 0.567,0.467 0.908,0.598 0.378,0.144 0.789,0.225 1.193,0.235 0.731,0.019 1.45,-0.269 1.967,-0.787 C 22.162,8.531 22.436,7.783 22.394,7.044 22.389,6.956 22.379,6.868 22.365,6.781 22.35,6.69 22.324,6.602 22.3,6.512 22.292,6.483 22.248,6.495 22.255,6.524 22.301,6.7 22.32,6.89 22.327,7.071 22.334,7.252 22.323,7.435 22.293,7.613 22.233,7.972 22.1,8.318 21.899,8.622 21.518,9.196 20.895,9.599 20.219,9.726 19.818,9.802 19.404,9.77 19.007,9.684 18.655,9.608 18.309,9.485 18.007,9.286 17.697,9.082 17.459,8.798 17.302,8.462 17.152,8.139 17.07,7.782 17.05,7.428 17.012,6.773 17.187,6.079 17.633,5.583 17.884,5.303 18.212,5.112 18.555,4.965 18.918,4.81 19.305,4.676 19.7,4.642 c 0.67,-0.058 1.359,0.156 1.883,0.575 0.562,0.449 0.936,1.138 0.892,1.868 -0.041,0.682 -0.408,1.327 -0.927,1.762 -0.568,0.475 -1.307,0.709 -2.034,0.783 -0.178,0.018 -0.357,0.031 -0.536,0.034 -0.008,0 -0.008,0.013 10e-4,0.013 z"
                   id="path73"
                   style="fill:#ededed;fill-opacity:1" />
              </g>
              <g
                 id="g75"
                 style="fill:#ededed;fill-opacity:1">
                <path
                   d="M 20.307,9.702 C 20.569,9.532 20.815,9.335 21.045,9.123 21.274,8.912 21.488,8.68 21.667,8.423 22.021,7.915 22.253,7.296 22.215,6.671 22.182,6.121 21.933,5.571 21.492,5.23 21.006,4.854 20.364,4.795 19.771,4.764 19.181,4.734 18.544,4.742 18.016,5.042 17.748,5.195 17.532,5.42 17.353,5.669 c -0.169,0.236 -0.304,0.496 -0.402,0.769 -0.195,0.54 -0.245,1.139 -0.097,1.697 0.147,0.553 0.492,1.041 0.957,1.373 0.51,0.364 1.155,0.515 1.775,0.428 C 20.209,9.849 20.773,9.52 21.264,9.142 21.384,9.05 21.5,8.952 21.618,8.858 21.639,8.842 21.61,8.813 21.589,8.829 21.468,8.925 21.341,9.015 21.215,9.103 21.091,9.191 20.966,9.277 20.837,9.358 20.58,9.52 20.309,9.664 20.019,9.76 19.428,9.956 18.776,9.927 18.211,9.66 17.705,9.421 17.29,9.001 17.056,8.493 16.821,7.984 16.784,7.397 16.899,6.853 17.017,6.295 17.293,5.744 17.708,5.348 17.924,5.142 18.185,5 18.471,4.919 c 0.282,-0.08 0.576,-0.105 0.868,-0.107 0.296,-0.002 0.595,0.014 0.89,0.045 0.296,0.031 0.596,0.087 0.869,0.209 0.257,0.115 0.481,0.288 0.653,0.511 0.165,0.215 0.279,0.466 0.343,0.728 0.144,0.585 0.013,1.202 -0.263,1.728 -0.284,0.542 -0.715,0.99 -1.189,1.371 -0.116,0.093 -0.234,0.184 -0.352,0.276 -0.011,0.01 0.005,0.03 0.017,0.022 z"
                   id="path74"
                   style="fill:#ededed;fill-opacity:1" />
              </g>
              <g
                 id="g76"
                 style="fill:#ededed;fill-opacity:1">
                <path
                   d="M 21.531,8.894 C 21.82,8.505 22.06,8.076 22.187,7.606 22.308,7.162 22.324,6.684 22.194,6.239 22.066,5.805 21.794,5.447 21.437,5.175 21.078,4.901 20.651,4.706 20.223,4.567 19.979,4.487 19.725,4.431 19.468,4.425 19.21,4.419 18.959,4.472 18.716,4.553 18.475,4.634 18.235,4.728 18.002,4.83 c -0.208,0.091 -0.407,0.199 -0.584,0.342 -0.626,0.506 -0.938,1.359 -0.83,2.151 0.11,0.808 0.641,1.539 1.348,1.934 0.089,0.05 0.182,0.086 0.275,0.127 C 18.23,9.392 18.246,9.365 18.227,9.356 18.136,9.315 18.049,9.26 17.964,9.208 17.881,9.158 17.801,9.103 17.724,9.045 17.565,8.926 17.417,8.79 17.285,8.641 17.023,8.345 16.824,7.991 16.72,7.609 16.513,6.851 16.718,6 17.254,5.424 17.39,5.278 17.545,5.153 17.717,5.052 c 0.214,-0.125 0.446,-0.215 0.676,-0.305 0.23,-0.09 0.463,-0.179 0.707,-0.224 0.248,-0.046 0.503,-0.034 0.75,0.016 0.243,0.049 0.477,0.131 0.706,0.225 0.199,0.082 0.393,0.176 0.577,0.287 0.367,0.222 0.692,0.519 0.882,0.909 0.198,0.408 0.245,0.881 0.176,1.325 -0.071,0.461 -0.261,0.905 -0.5,1.303 -0.059,0.098 -0.121,0.194 -0.184,0.289 -0.01,0.018 0.014,0.031 0.024,0.017 z"
                   id="path75"
                   style="fill:#ededed;fill-opacity:1" />
              </g>
            </g>
          </g>
          <path
             d="m 6.523893,9.0766923 q -0.2818477,0 -0.4612052,-0.187899 Q 5.8833301,8.6966242 5.8833301,8.384884 q 0,-0.038434 0,-0.072596 0.00428,-0.038434 0.00854,-0.081138 Q 5.9260344,7.9920057 6.0242542,7.8169183 6.1224735,7.6375608 6.2335045,7.4624735 6.3488058,7.2831162 6.4299438,7.0525135 6.5153521,6.8219109 6.5153521,6.4760072 6.216423,6.6510942 6.054147,6.8389925 5.8961414,7.0268909 5.7979218,7.2105189 5.7039727,7.3941471 5.5972122,7.5692338 5.4947224,7.7400506 5.3068239,7.8895154 q -0.034163,0.02989 -0.068327,0.046972 -0.029893,0.017082 -0.064056,0.038435 Q 4.9054045,8.1329297 4.6534498,8.0731434 4.401495,8.0090871 4.2563009,7.7656734 4.115377,7.5222598 4.187974,7.2745754 4.264842,7.0226205 4.5338782,6.8688855 q 0.034163,-0.021351 0.064056,-0.038434 0.034163,-0.017082 0.076868,-0.034163 0.2220619,-0.089679 0.4227715,-0.093949 0.2007097,-0.00428 0.40996,0.00428 0.2092506,0.00854 0.4526644,-0.034164 Q 6.2036117,6.6297437 6.5068113,6.458927 6.2036117,6.2881086 5.9601978,6.2454045 5.716784,6.1984296 5.5075335,6.211241 5.2982829,6.2197862 5.0975733,6.2155083 4.8968636,6.211241 4.6748019,6.1172889 4.6320977,6.1002119 4.5979343,6.08313 4.5680416,6.0660484 4.5338782,6.0489664 4.2648417,5.890961 4.187974,5.6432767 4.115377,5.3913219 4.2563009,5.1479082 4.401495,4.9044943 4.6534498,4.8447085 q 0.2519547,-0.059785 0.5209911,0.093949 0.034163,0.017082 0.064056,0.038434 0.034164,0.017082 0.068325,0.046975 0.1878985,0.1494647 0.2903885,0.3245517 0.1067593,0.1708169 0.2007096,0.3587152 0.09822,0.183628 0.2562251,0.3715264 0.162276,0.1878984 0.4612052,0.3629855 0,-0.3459038 -0.085407,-0.5765064 Q 6.3488058,5.6304641 6.2335045,5.4553771 6.1224735,5.2760196 6.0242541,5.1009324 5.9260345,4.9258452 5.8918711,4.6867018 q -0.00428,-0.046975 -0.00854,-0.081138 0,-0.038434 0,-0.076868 0,-0.3160111 0.1793577,-0.5039094 0.1793573,-0.1878985 0.461205,-0.1878985 0.286118,0 0.4654756,0.1878985 0.1793577,0.1878983 0.1793577,0.5039094 0,0.038434 0,0.076868 0,0.034163 -0.00854,0.081138 Q 7.1260261,4.9258452 7.0278054,5.1009324 6.9295827,5.2760196 6.8142814,5.4553771 6.7032506,5.6304641 6.6178421,5.8653373 6.5367041,6.0959399 6.5324338,6.4418438 6.8356334,6.2667566 6.9936389,6.0788582 7.155915,5.8909599 7.2498642,5.7073317 7.3480839,5.5194334 7.4505736,5.3486166 7.553064,5.1735294 7.745233,5.0240648 7.779397,4.9941718 7.80929,4.9770898 7.843453,4.9557378 7.873346,4.9386558 8.1509231,4.7849208 8.4028776,4.8447068 8.6548319,4.9044928 8.795756,5.1479066 8.9366791,5.3913203 8.864083,5.643275 8.791482,5.8909593 8.5181791,6.0489648 q -0.02989,0.017082 -0.064056,0.034163 -0.034163,0.017082 -0.076868,0.034163 -0.2220616,0.093949 -0.422771,0.09822 -0.2007096,0.00428 -0.4099606,-0.00428 -0.2092502,-0.012807 -0.4526639,0.034163 -0.243414,0.042704 -0.5466138,0.2135209 0.3031998,0.1708169 0.5423432,0.2177913 0.2434136,0.042706 0.4526646,0.034163 0.2092502,-0.00854 0.4099598,-0.00428 0.2049801,0.00428 0.4270417,0.089679 0.042707,0.017082 0.076868,0.034163 0.034163,0.017082 0.064056,0.038434 0.2733055,0.1537459 0.3459032,0.4057008 0.072601,0.2476843 -0.068327,0.491098 Q 8.6548317,8.0090871 8.4028771,8.0731434 8.1509226,8.1329315 7.8733455,7.9749237 7.8434545,7.9535703 7.8092892,7.9364889 7.7793982,7.9194073 7.745233,7.8895165 7.553064,7.7400506 7.4505736,7.5692338 7.3480839,7.3941471 7.2498642,7.2105189 7.155915,7.0268909 6.9936389,6.8389925 6.8356334,6.6510942 6.5324338,6.4760072 q 0.00428,0.3459037 0.085409,0.5765063 0.085407,0.2306027 0.1964392,0.40996 0.1153015,0.1750873 0.2135208,0.3544448 0.09822,0.1750874 0.1323833,0.4142304 0.00855,0.042707 0.00855,0.081138 0,0.034163 0,0.072596 0,0.3117396 -0.1793574,0.5039088 -0.1793575,0.1878989 -0.4654754,0.1878989 z"
             id="text1"
             style="font-weight:bold;font-size:13.4152px;font-family:'Bodoni Moda';-inkscape-font-specification:'Bodoni Moda Bold';fill:#ededed;stroke-width:0.100245;fill-opacity:1"
             aria-label="*" />
        </g>
      </g>
    </g>
  </g>
</svg>
